# xmcd CD database file
#
# Track frame offsets:
#	150
#	3319
#	29261
#	53992
#	72295
#	95118
#	115107
#	135373
#	155276
#	162227
#	181899
#	215347
#	234958
#	259871
#	278701
#	298830
#	323192
#
# Disc length: 4385 seconds
#
# Revision: 1
# Processed by: cddbd v1.5.1PL0 Copyright (c) Steve Scherf et al.
# Submitted via: CDex 1.51
#
DISCID=eb111f11
DTITLE=Various Artist - DJ Nik Volume 1
DYEAR=2005
DGENRE=Salsa
TTITLE0=Tito, Mongo, y Willie Bobo - Intro: Obatala Yeza
TTITLE1=Wayne Gorbea - Los Rumeeros
TTITLE2=Angel Canales - Panama Soberana
TTITLE3=Africando - Yay Boy
TTITLE4=Tommy Olivencia - Trucutu
TTITLE5=Jose Alberto - Quiero Salsa
TTITLE6=Ray Barreto - Mirame de Frente
TTITLE7=Ricardo Lemvo - Le Rendez-vous
TTITLE8=Tito Puente et al - Interlude: Four by Two
TTITLE9=Frankie Ruiz - Ahora Me Toca a Mi
TTITLE10=Poncho Sanchez - Mama Guela
TTITLE11=Justo Batancourt - Como Lo Cante Yo
TTITLE12=Jimmy Bosch - La Soledad
TTITLE13=Pellin Rodriguez - Tengo Swing
TTITLE14=Johnny Pacheco y "el Conde" - Dulce con Dulce
TTITLE15=Ruben Blades y "el Conde" - Descarga Caliente
TTITLE16=Tito Puente et al - Coda: Elegura
EXTD=YEAR: 2005
EXTT0=
EXTT1=
EXTT2=
EXTT3=
EXTT4=
EXTT5=
EXTT6=
EXTT7=
EXTT8=
EXTT9=
EXTT10=
EXTT11=
EXTT12=
EXTT13=
EXTT14=
EXTT15=
EXTT16=
PLAYORDER=
